<svg width="20" height="20" viewBox="0 0 20 20" xmlns="http://www.w3.org/2000/svg">
    <defs/>
    <path fill="#5dae7a" stroke="none" d="M 5 1 L 19 1 L 19 19 L 5 19 Z"/>
    <path fill="#000000" fill-opacity="0.09411765" stroke="none" d="M 18 1 L 19 1 L 19 19 L 18 19 Z"/>
    <path fill="#82908b" stroke="none" d="M 16 1 L 18 1 L 18 19 L 16 19 Z"/>
    <path fill="#d8dedb" stroke="none" d="M 16 1 L 17 1 L 17 19 L 16 19 Z"/>
    <path fill="#e8eeeb" stroke="none" d="M 17 6 L 18 6 L 18 7 L 17 7 Z"/>
    <path fill="#e8eeeb" stroke="none" d="M 17 9 L 18 9 L 18 10 L 17 10 Z"/>
    <path fill="#e8eeeb" stroke="none" d="M 17 12 L 18 12 L 18 13 L 17 13 Z"/>
    <path fill="#e8eeeb" stroke="none" d="M 17 15 L 18 15 L 18 16 L 17 16 Z"/>
    <path fill="#e8eeeb" stroke="none" d="M 17 18 L 18 18 L 18 19 L 17 19 Z"/>
    <path fill="#cbd3d0" stroke="none" d="M 16 1 L 18 1 L 18 4 L 16 4 Z"/>
    <path fill="#f1f4f2" stroke="none" d="M 16 1 L 17 1 L 17 3 L 16 3 Z"/>
    <path fill="#687970" stroke="none" d="M 17 3 L 18 3 L 18 5 L 17 5 Z"/>
    <path fill="#c1c8cc" stroke="none" d="M 0 9 L 14 9 L 14 19 L 0 19 Z"/>
    <path fill="#ffffff" stroke="none" d="M 0 9 L 13 9 L 13 18 L 0 18 Z"/>
    <g transform="matrix(1 0 0 1 1 8)">
        <g>
            <path fill="#27333b" stroke="none" d="M 5.6953125 8.569336 Q 4.7109375 9.105469 3.5024412 9.105469 Q 2.1049805 9.105469 1.2392578 8.235352 Q 0.37353516 7.3652344 0.37353516 5.932617 Q 0.37353516 4.4692383 1.3205566 3.5310059 Q 2.2675781 2.5927734 3.7265625 2.5927734 Q 4.7768555 2.5927734 5.493164 2.9003906 L 5.493164 3.9770508 Q 4.7680664 3.4936526 3.7661133 3.4936526 Q 2.7597659 3.4936526 2.1159668 4.1572266 Q 1.472168 4.820801 1.472168 5.875488 Q 1.472168 6.9609375 2.025879 7.5827637 Q 2.5795898 8.20459 3.5288086 8.20459 Q 4.179199 8.20459 4.6538086 7.9541016 L 4.6538086 6.455567 L 3.3266602 6.455567 L 3.3266602 5.5766597 L 5.6953125 5.5766597 L 5.6953125 8.569336 Z M 11.351074 3.1552732 L 7.8969727 8.116699 L 11.307128 8.116699 L 11.307128 9 L 6.4335938 9 L 6.4335938 8.520996 L 9.900879 3.5859375 L 6.70166 3.5859375 L 6.70166 2.6982422 L 11.351074 2.6982422 L 11.351074 3.1552732 Z"/>
        </g>
    </g>
</svg>
