<svg width="20" height="20" viewBox="0 0 20 20" xmlns="http://www.w3.org/2000/svg">
    <defs/>
    <path fill="#5d97c7" stroke="none" d="M 5 1 L 19 1 L 19 19 L 5 19 Z"/>
    <path fill="#000000" fill-opacity="0.09411765" stroke="none" d="M 18 1 L 19 1 L 19 19 L 18 19 Z"/>
    <path fill="#82908b" stroke="none" d="M 16 1 L 18 1 L 18 19 L 16 19 Z"/>
    <path fill="#d8dedb" stroke="none" d="M 16 1 L 17 1 L 17 19 L 16 19 Z"/>
    <path fill="#e8eeeb" stroke="none" d="M 17 6 L 18 6 L 18 7 L 17 7 Z"/>
    <path fill="#e8eeeb" stroke="none" d="M 17 9 L 18 9 L 18 10 L 17 10 Z"/>
    <path fill="#e8eeeb" stroke="none" d="M 17 12 L 18 12 L 18 13 L 17 13 Z"/>
    <path fill="#e8eeeb" stroke="none" d="M 17 15 L 18 15 L 18 16 L 17 16 Z"/>
    <path fill="#e8eeeb" stroke="none" d="M 17 18 L 18 18 L 18 19 L 17 19 Z"/>
    <path fill="#cbd3d0" stroke="none" d="M 16 1 L 18 1 L 18 4 L 16 4 Z"/>
    <path fill="#f1f4f2" stroke="none" d="M 16 1 L 17 1 L 17 3 L 16 3 Z"/>
    <path fill="#687970" stroke="none" d="M 17 3 L 18 3 L 18 5 L 17 5 Z"/>
    <path fill="#c1c8cc" stroke="none" d="M 0 10 L 17 10 L 17 19 L 0 19 Z"/>
    <path fill="#ffffff" stroke="none" d="M 0 10 L 16 10 L 16 18 L 0 18 Z"/>
    <g transform="matrix(1 0 0 1 1 9)">
        <g>
            <path fill="#27333b" stroke="none" d="M 4.26709 9 L 0.777832 9 L 0.777832 2.6982422 L 1.8237303 2.6982422 L 1.8237303 8.116699 L 4.26709 8.116699 L 4.26709 9 Z M 9.733887 3.1552732 L 6.279785 8.116699 L 9.689941 8.116699 L 9.689941 9 L 4.8164063 9 L 4.8164063 8.520996 L 8.283691 3.5859375 L 5.0844727 3.5859375 L 5.0844727 2.6982422 L 9.733887 2.6982422 L 9.733887 3.1552732 Z M 14.009765 2.6982422 L 14.009765 6.767578 L 14.945801 6.767578 L 14.945801 7.6157227 L 14.009765 7.6157227 L 14.009765 9 L 13.020996 9 L 13.020996 7.6157227 L 10.168945 7.6157227 L 10.168945 6.758789 Q 10.555664 6.3237305 10.962158 5.816162 Q 11.368652 5.3085938 11.744386 4.7790527 Q 12.120118 4.2495117 12.440918 3.7177734 Q 12.761719 3.1860352 12.981445 2.6982422 L 14.009765 2.6982422 Z M 13.020996 6.767578 L 13.020996 4.1220703 Q 12.541991 4.9833984 12.073975 5.6249995 Q 11.605957 6.2666016 11.197266 6.767578 L 13.020996 6.767578 Z"/>
        </g>
    </g>
</svg>
