<svg width="16" height="16" viewBox="0 0 16 16" xmlns="http://www.w3.org/2000/svg">
    <defs/>
    <path fill="#3d7059" stroke="none" d="M 2 7 L 15 7 L 15 10 L 2 10 Z"/>
    <path fill="#4a896c" stroke="none" d="M 1 8 L 13 8 L 13 10 L 1 10 Z"/>
    <path fill="#77a791" stroke="none" d="M 2 7 L 13 7 L 13 8 L 2 8 Z"/>
    <path fill="#e4dcc5" stroke="none" d="M 13 8 L 15 8 L 15 9 L 13 9 Z"/>
    <path fill="#34678d" stroke="none" d="M 2 4 L 15 4 L 15 7 L 2 7 Z"/>
    <path fill="#407dac" stroke="none" d="M 1 5 L 13 5 L 13 7 L 1 7 Z"/>
    <path fill="#709ec1" stroke="none" d="M 2 4 L 13 4 L 13 5 L 2 5 Z"/>
    <path fill="#e4dcc5" stroke="none" d="M 13 5 L 15 5 L 15 6 L 13 6 Z"/>
    <path fill="#546875" stroke="none" d="M 2 1 L 15 1 L 15 4 L 2 4 Z"/>
    <path fill="#677f8f" stroke="none" d="M 1 2 L 13 2 L 13 4 L 1 4 Z"/>
    <path fill="#8d9fab" stroke="none" d="M 2 1 L 13 1 L 13 2 L 2 2 Z"/>
    <path fill="#e4dcc5" stroke="none" d="M 13 2 L 15 2 L 15 3 L 13 3 Z"/>
    <path fill="#91603b" stroke="none" d="M 10 1 L 13 1 L 13 10 L 10 10 Z"/>
    <path fill="#c0996a" stroke="none" d="M 10 1 L 11 1 L 11 10 L 10 10 Z"/>
    <path fill="#dce3e3" stroke="none" d="M 9 4 L 14 4 L 14 8 L 9 8 Z"/>
    <path fill="#765335" stroke="none" d="M 10 5 L 13 5 L 13 7 L 10 7 Z"/>
    <path fill="#edf1ee" stroke="none" d="M 11 5 L 12 5 L 12 7 L 11 7 Z"/>
    <path fill="#bec2be" stroke="none" d="M 0 8 L 13 8 L 13 16 L 0 16 Z"/>
    <path fill="#fffdf7" stroke="none" d="M 0 8 L 12 8 L 12 15 L 0 15 Z"/>
    <g transform="matrix(1 0 0 1 1 7)">
        <g>
            <path fill="#28363f" stroke="none" d="M 5.4414063 8 L 4.4257813 8 L 1.75 3.8828125 Q 1.6484374 3.7265625 1.5820313 3.5585935 L 1.5585938 3.5585935 Q 1.5898436 3.7382813 1.5898436 4.328125 L 1.5898436 8 L 0.69140625 8 L 0.69140625 2.3984375 L 1.7734374 2.3984375 L 4.359375 6.4179688 Q 4.5234375 6.6679688 4.5703125 6.761719 L 4.5859375 6.761719 Q 4.546875 6.5390625 4.546875 6.0078125 L 4.546875 2.3984375 L 5.4414063 2.3984375 L 5.4414063 8 Z M 10.421875 3.1875002 L 8.8125 3.1875002 L 8.8125 8 L 7.882813 8 L 7.882813 3.1875002 L 6.277344 3.1875002 L 6.277344 2.3984375 L 10.421875 2.3984375 L 10.421875 3.1875002 Z"/>
        </g>
    </g>
</svg>
