<svg width="24" height="24" viewBox="0 0 24 24" xmlns="http://www.w3.org/2000/svg">
    <defs/>
    <path fill="#476a5d" stroke="none" d="M 2 11 L 23 11 L 23 16 L 2 16 Z"/>
    <path fill="#568171" stroke="none" d="M 1 12 L 20 12 L 20 16 L 1 16 Z"/>
    <path fill="#80a195" stroke="none" d="M 2 11 L 20 11 L 20 12 L 2 12 Z"/>
    <path fill="#e4dcc5" stroke="none" d="M 20 12 L 23 12 L 23 15 L 20 15 Z"/>
    <path fill="#dec795" stroke="none" d="M 3 13 L 4 13 L 4 15 L 3 15 Z"/>
    <path fill="#415e92" stroke="none" d="M 2 6 L 23 6 L 23 11 L 2 11 Z"/>
    <path fill="#4f73b2" stroke="none" d="M 1 7 L 20 7 L 20 11 L 1 11 Z"/>
    <path fill="#7b96c5" stroke="none" d="M 2 6 L 20 6 L 20 7 L 2 7 Z"/>
    <path fill="#e4dcc5" stroke="none" d="M 20 7 L 23 7 L 23 10 L 20 10 Z"/>
    <path fill="#dec795" stroke="none" d="M 3 8 L 4 8 L 4 10 L 3 10 Z"/>
    <path fill="#86478b" stroke="none" d="M 2 1 L 23 1 L 23 6 L 2 6 Z"/>
    <path fill="#a457aa" stroke="none" d="M 1 2 L 20 2 L 20 6 L 1 6 Z"/>
    <path fill="#bb81bf" stroke="none" d="M 2 1 L 20 1 L 20 2 L 2 2 Z"/>
    <path fill="#e4dcc5" stroke="none" d="M 20 2 L 23 2 L 23 5 L 20 5 Z"/>
    <path fill="#dec795" stroke="none" d="M 3 3 L 4 3 L 4 5 L 3 5 Z"/>
    <path fill="#91603b" stroke="none" d="M 14 1 L 18 1 L 18 16 L 14 16 Z"/>
    <path fill="#c0996a" stroke="none" d="M 14 1 L 15 1 L 15 16 L 14 16 Z"/>
    <path fill="#dce3e3" stroke="none" d="M 13 6 L 19 6 L 19 12 L 13 12 Z"/>
    <path fill="#765335" stroke="none" d="M 14 7 L 18 7 L 18 11 L 14 11 Z"/>
    <path fill="#edf1ee" stroke="none" d="M 15 7 L 16 7 L 16 11 L 15 11 Z"/>
    <path fill="#bec2be" stroke="none" d="M 0 14 L 22 14 L 22 24 L 0 24 Z"/>
    <path fill="#fffdf7" stroke="none" d="M 0 14 L 21 14 L 21 23 L 0 23 Z"/>
    <g transform="matrix(1 0 0 1 1 13)">
        <g>
            <path fill="#28363f" stroke="none" d="M 6.274414 10 L 4.916992 10 L 3.7988281 8.125 Q 3.6474607 7.8662114 3.503418 7.6831055 Q 3.359375 7.5 3.2104492 7.382813 Q 3.0615234 7.265625 2.8857422 7.211914 Q 2.709961 7.1582026 2.4902344 7.1582026 L 2.0214844 7.1582026 L 2.0214844 10 L 0.8642578 10 L 0.8642578 2.9980466 L 3.1689453 2.9980466 Q 3.6621094 2.9980466 4.0771484 3.1152341 Q 4.4921875 3.2324219 4.7998047 3.4692383 Q 5.107422 3.7060547 5.2807617 4.0600586 Q 5.4541016 4.4140625 5.4541016 4.8876953 Q 5.4541016 5.258789 5.3442383 5.568847 Q 5.234375 5.8789063 5.0317383 6.1206055 Q 4.8291016 6.3623047 4.543457 6.533203 Q 4.2578125 6.7041016 3.901367 6.796875 L 3.901367 6.8164063 Q 4.091797 6.9238276 4.2333984 7.053222 Q 4.375 7.182617 4.501953 7.3193355 Q 4.6289063 7.456054 4.753418 7.6293945 Q 4.8779297 7.802734 5.029297 8.032227 L 6.274414 10 Z M 2.0214844 3.9404297 L 2.0214844 6.2158203 L 2.9882813 6.2158203 Q 3.256836 6.2158203 3.4838867 6.132813 Q 3.7109375 6.0498047 3.8769534 5.8935547 Q 4.0429688 5.737305 4.135742 5.512695 Q 4.2285156 5.288086 4.2285156 5.0097656 Q 4.2285156 4.506836 3.9111328 4.223633 Q 3.59375 3.9404297 2.9980466 3.9404297 L 2.0214844 3.9404297 Z M 12.841797 10 L 11.567383 10 L 10.9375 8.217773 L 8.183594 8.217773 L 7.578125 10 L 6.3085938 10 L 8.930664 2.9980466 L 10.239258 2.9980466 L 12.841797 10 Z M 10.629883 7.2705073 L 9.658203 4.477539 Q 9.614258 4.3408203 9.56543 4.038086 L 9.545898 4.038086 Q 9.501953 4.3164063 9.448242 4.477539 L 8.486328 7.2705073 L 10.629883 7.2705073 Z M 19.213867 10 L 17.856445 10 L 16.738281 8.125 Q 16.586914 7.8662114 16.442871 7.6831055 Q 16.298828 7.5 16.149902 7.382813 Q 16.000977 7.265625 15.825195 7.211914 Q 15.649414 7.1582026 15.4296875 7.1582026 L 14.960937 7.1582026 L 14.960937 10 L 13.803711 10 L 13.803711 2.9980466 L 16.108398 2.9980466 Q 16.601563 2.9980466 17.016602 3.1152341 Q 17.43164 3.2324219 17.739258 3.4692383 Q 18.046875 3.7060547 18.220215 4.0600586 Q 18.393555 4.4140625 18.393555 4.8876953 Q 18.393555 5.258789 18.283691 5.568847 Q 18.173828 5.8789063 17.971191 6.1206055 Q 17.768555 6.3623047 17.48291 6.533203 Q 17.197266 6.7041016 16.84082 6.796875 L 16.84082 6.8164063 Q 17.03125 6.9238276 17.172852 7.053222 Q 17.314453 7.182617 17.441406 7.3193355 Q 17.56836 7.456054 17.692871 7.6293945 Q 17.817383 7.802734 17.96875 8.032227 L 19.213867 10 Z M 14.960937 3.9404297 L 14.960937 6.2158203 L 15.927733 6.2158203 Q 16.19629 6.2158203 16.42334 6.132813 Q 16.65039 6.0498047 16.816406 5.8935547 Q 16.982422 5.737305 17.075195 5.512695 Q 17.167969 5.288086 17.167969 5.0097656 Q 17.167969 4.506836 16.850586 4.223633 Q 16.533203 3.9404297 15.9375 3.9404297 L 14.960937 3.9404297 Z"/>
        </g>
    </g>
</svg>
